<svg width="25" height="24" viewBox="0 0 25 24" fill="none" xmlns="http://www.w3.org/2000/svg">
<g clip-path="url(#clip0_25654_783)">
<path d="M12.2969 22.98C18.372 22.98 23.2969 18.0551 23.2969 11.98C23.2969 5.90485 18.372 0.97998 12.2969 0.97998C6.22174 0.97998 1.29688 5.90485 1.29688 11.98C1.29688 18.0551 6.22174 22.98 12.2969 22.98Z" fill="#119FC0"/>
<path d="M8.94707 10.1299H7.91707C7.82318 10.1299 7.74707 10.206 7.74707 10.2999V15.7699C7.74707 15.8638 7.82318 15.9399 7.91707 15.9399H8.94707C9.04096 15.9399 9.11707 15.8638 9.11707 15.7699V10.2999C9.11707 10.206 9.04096 10.1299 8.94707 10.1299Z" fill="white"/>
<path d="M11.5877 10.1299H10.5577C10.4638 10.1299 10.3877 10.206 10.3877 10.2999V15.7699C10.3877 15.8638 10.4638 15.9399 10.5577 15.9399H11.5877C11.6816 15.9399 11.7577 15.8638 11.7577 15.7699V10.2999C11.7577 10.206 11.6816 10.1299 11.5877 10.1299Z" fill="white"/>
<path d="M14.1775 10.1299H13.1475C13.0537 10.1299 12.9775 10.206 12.9775 10.2999V15.7699C12.9775 15.8638 13.0537 15.9399 13.1475 15.9399H14.1775C14.2714 15.9399 14.3475 15.8638 14.3475 15.7699V10.2999C14.3475 10.206 14.2714 10.1299 14.1775 10.1299Z" fill="white"/>
<path d="M16.8377 10.1299H15.8077C15.7138 10.1299 15.6377 10.206 15.6377 10.2999V15.7699C15.6377 15.8638 15.7138 15.9399 15.8077 15.9399H16.8377C16.9316 15.9399 17.0077 15.8638 17.0077 15.7699V10.2999C17.0077 10.206 16.9316 10.1299 16.8377 10.1299Z" fill="white"/>
<path d="M6.73752 9.16996H17.8375C17.9346 9.16862 18.0283 9.13366 18.1025 9.07104C18.1768 9.00841 18.227 8.92198 18.2447 8.82648C18.2624 8.73097 18.2464 8.63229 18.1995 8.54723C18.1527 8.46217 18.0777 8.39599 17.9875 8.35996L12.4775 5.70996C12.4213 5.68328 12.3598 5.66943 12.2975 5.66943C12.2353 5.66943 12.1738 5.68328 12.1175 5.70996L6.55752 8.36996C6.47106 8.41066 6.40107 8.47963 6.35909 8.56548C6.31712 8.65133 6.30567 8.74893 6.32665 8.84216C6.34763 8.93539 6.39977 9.01868 6.47447 9.07828C6.54917 9.13787 6.64196 9.17021 6.73752 9.16996ZM12.2775 6.99996C12.4021 6.99996 12.5239 7.03691 12.6275 7.10613C12.7311 7.17536 12.8119 7.27375 12.8596 7.38887C12.9073 7.50399 12.9197 7.63066 12.8954 7.75287C12.8711 7.87508 12.8111 7.98733 12.723 8.07544C12.6349 8.16355 12.5226 8.22355 12.4004 8.24785C12.2782 8.27216 12.1516 8.25969 12.0364 8.212C11.9213 8.16432 11.8229 8.08357 11.7537 7.97997C11.6845 7.87637 11.6475 7.75456 11.6475 7.62996C11.6475 7.54723 11.6638 7.4653 11.6955 7.38887C11.7271 7.31243 11.7735 7.24298 11.832 7.18448C11.8905 7.12598 11.96 7.07958 12.0364 7.04792C12.1129 7.01626 12.1948 6.99996 12.2775 6.99996Z" fill="white"/>
<path d="M17.8474 16.79H6.73738C6.62599 16.79 6.51916 16.8343 6.4404 16.9131C6.36163 16.9918 6.31738 17.0986 6.31738 17.21C6.31738 17.3214 6.36163 17.4283 6.4404 17.507C6.51916 17.5858 6.62599 17.63 6.73738 17.63H17.8374C17.9488 17.63 18.0556 17.5858 18.1344 17.507C18.2131 17.4283 18.2574 17.3214 18.2574 17.21C18.2574 17.0986 18.2131 16.9918 18.1344 16.9131C18.0556 16.8343 17.9488 16.79 17.8374 16.79H17.8474Z" fill="white"/>
</g>
<defs>
<clipPath id="clip0_25654_783">
<rect width="24" height="24" fill="white" transform="translate(0.277344)"/>
</clipPath>
</defs>
</svg>
